# xmcd
#
# Track frame offsets:
#	150
#	17400
#	37611
#	55753
#	69605
#	101618
#	129281
#	147380
#	173393
#	194652
#
# Disc length: 2913 seconds
#
# Revision: 1
# Processed by: cddbd v1.5.1PL2 Copyright (c) Steve Scherf et al.
# Submitted via: audiograbber 1.83.01
#
DISCID=7b0b5f0a
DTITLE=Kenny Thomas - Crazy World
DYEAR=2006
DGENRE=Soul
TTITLE0=I Will
TTITLE1=Crazy World
TTITLE2=Don't Come Around
TTITLE3=Don't Know Why
TTITLE4=Him
TTITLE5=Let It Rain
TTITLE6=No Way In, No Way Out
TTITLE7=Foolin' Around
TTITLE8=Sunshine Girl
TTITLE9=You'll Be Mine
EXTD=
EXTT0=
EXTT1=
EXTT2=
EXTT3=
EXTT4=
EXTT5=
EXTT6=
EXTT7=
EXTT8=
EXTT9=
PLAYORDER=
